<?xml version="1.0" encoding="UTF-8"?>
<svg viewBox="0 0 2048 1829" width="1280" height="1280" xmlns="http://www.w3.org/2000/svg">
<path transform="translate(1420,260)" d="m0 0h6l1 4-8 18-5 14-2 12-5 13-9 14-1 2 9-1 15-5 41-10 37-9 40-6 9-1h28l30 3 19 3 21 6 25 10 19 11 14 11 15 14 14 14 7 8 11 15 14 27 8 18 7 23 3 20v22l-3 21-6 23-8 21-14 28-8 14-12 17-14 19-8 11-12 14-8 11-18 18-5 12-6 5-10 6h-2l-2 4-8 7-11 14-8 9-6 9-9 10-11 1-4 2 1 5 4 7-2 4-11 4-10 3-3 3-2 5-4 3-6 1-5 1v2h-2v15l-3 6-2 1-11-1-9-4-7-1 6 3 5 5 5 4 8 2 1 4-6 9-7 9-11 13-5 9h18l23-2h39l39 3 25 5 25 7 24 10 24 12 14 9 13 10 13 12 14 14 9 11 10 14 12 21 15 33 5 16 6 37-1 12-6 25-9 21-10 15-11 14-12 14-14 15-7 8-12 13-16 17-8 8-8 7-13 11-13 10-15 13-9 7-10 8-10 9-13 9-19 11-18 12-24 15-22 15-28 17-16 9-14 8-24 11-17 10-22 11-15 9-18 10-15 5-21 6-41 15-15 5-10-2-11-7-11-9-12-11-9-10-7-8-4-5-4-11-6-18-1-8 3-5 5-4 11-4 29-9 40-16 34-14 29-13 25-10 22-12 16-8 21-12 13-8 14-8 27-16 13-10 20-15 17-9 14-10 11-8 12-11 11-9 10-8 12-12 7-8 10-10 14-11 29-29 8-10 12-17 11-19 8-16 5-17 2-17v-18l-4-8-8-6-15-7-18-6-26-5-20-2h-39l-27 3-42 6-19 3-9-2-6-2h-7l-9 6-8 6-13 4h-7l-8 5-8 2-5 1-13 5-8 5-6 1-3-6-1-11-3 1v15l-2 5-14 7-20 8-9 7-42 22-18 11-14 9-15 8-12 2-5-4-4-3h-5l-7 21-5 9-2 2 1 6v13l-2 8-2 5v18l-6 20-4 15-3 7 1 5 1 1v12l-4 14-5 29-6 13-1 3v24l-4 26-3 15-2 12-2 28v30l-5 9-6 9-1 5v102l4 38 4 20v8l-3 8-4 3h-7l-20-8-23-13-16-8-9-7-9-10-11-18-4-13-2-19v-18l1-7v-32l5-14 1-7 1-32 5-18 4-18v-9l-5-10 1-7 3-4 4-20-1-15 3-19 5-9 9-30 1-5v-26l-3-9 4-4 3-9 1-14 6-18 2-13 3-9 3-15 2-9 1-17v-2l-7 1 1 12-6 7-7 2-1 2h-7l-2 2h-3l-2-2h-4l-7-4-5 1-2 6 5 2 5 3-1 4-3 3h-6l-2-4-6 9-4 8-1 1h8l10-8 7-1 6 1 4-3 4 3-2 11-6 15-7 20-7 14-3 5-6-2-5-2-11 3-6 12-5 13-5 7h-2l-2 5v8l7 2h16v7l-10 27-8 19-4 8-5 5-10 1-9 3-5 4-1 4 2 8 11-4 5-1-1 6-8 26-8 18-10 21-7 15-11 27-18 36-20 35-10 13-13 13-7 5-16 4-8 1h-13l-14-3-13-5-17-9-14-10-12-11-10-9-9-10-8-8-7-8-18-18-12-17-9-16-13-30-5-17-6-33-7-63-3-15-1-11-2-59v-15l-1-6v-16l1-4 2-39 2-19 4-28 2-29 2-49 4-19 4-37v-15l-4-4v7l-4 10-10 18-8 14-6 12-12 19-6 7h-8l-9-3-5-4 1-8 1-10 4-4 7-1 7-8 6-12 7-25 3-10 4-3h7l4 7 4-2 4-5 5-3v-3l-3-5v-3l-5 1-8-3-5-1-9 3-4 9-4 11-9 8 1 5 4 8-1 2-6-5-2 4-6 7-6 12-3 13-6 13-3 13-4 5-1 9 7-9 2-6 5 1 11 7 6 5 2 8-3 9-4 4h-6l-9-5-5 2-5 8-2 4-16 8-2 2v4l6 3 3 5-1 4-1 1h-13l-6 3-8 11-4 11v7l-3 8-2 4 2 2 2 10 4-5 6-1 3 1 7-6 3-2 3-5 4-3 7 1-1 9-5 8-3 12-10 28-12 24-15 33-7 11-7 14-3 3-4-2-11-13-9-8-3-8 9-3 10 3 4 1 2-6h2l2-5 1-2h-15l-6-5 1-4 5-3 5-1 4 5h3l3 4-3-8v-6l-4-7-3-2-5 1-3 8-7 16-2 6 2 1-4 4-7 14-8 20-1 4 11 3 5 3 2 3v3l8 1 9 3-1 6-6 9-5 10-4 2h-6l-4-4 2-4 4-6v-8l2-6-9 5-9 6-5 2-4 12-1 19 3 2 17 2 4 2-1 6-7 15-7 19-8 15-5 5-3 2-9 1 8 3 1 5-6 11-7 8-7 3v7l-4-1-2 5-7 3-25 4-5 2-1 3 4 1h10l18-5 6-3h2l-1 6-11 21-7 11-4 1h-7l-7-3-3 2-4 1-3 3-3 11v15l2 6 2-3 3-12 4-4 3-1h8l1 2-5 13-14 23-15 28-10 18-7 11-9 11-8 9-10 8-9 4-16 4h-17l-29-9-25-10-11-7-15-14-8-7-11-11-7-8-16-16-9-12-6-12-6-18-3-14-2-15-2-36v-43l1-17 3-15 5-21 2-20 4-54 3-22 3-21 3-34 4-26 5-26 6-40 7-35 8-36 7-37 11-57 8-47 11-55 13-63 13-74 6-25 6-40 8-37 8-39 10-56 10-63 6-46 1-15v-19l3-11 4-5 2-1h8l12 5 14 9 12 11 11 10 19 12 8 6 7 8 7 13 18 22 3 7 1 6v22l-2 28-5 36-8 44-12 60-14 67-9 46-4 26-2 18-5 19-8 25-11 42-8 37-3 15-5-2-3-2h-8l1 3 9 1 5 1v7l-23 114-9 49-9 54-2 22-2 28-2 13-6 9 2 5-1 12-6 17-5 37-7 61-1 25-1 10v11l4 1 5-3 9-16 13-20 8-16 7-17 6-7 5-11 5-14 12-26 11-21 7-10 5-10 5-15 8-14 6-10 7-16 12-24 10-24 15-29 12-29 14-30 10-25 15-30 12-26 8-16 8-20 9-19 11-17 6-13 17-42 9-20 10-20 10-16 5-15 8-18 5-12 12-26 13-28 21-42 11-23 14-28 13-30 15-28 8-16 8-18 17-35 8-17 10-19 8-17 11-26 12-25 11-24 7-19 3-5 3-2 9 1 21 6 14 7 15 11 16 12 13 10 17 17 11 14 5 10 1 3v16l-1 11 1 22-3 17-7 28-8 33-10 35-9 29-9 39-1 5 2 12-3 10-8 14-3 7v25l-8 7-3 9-2 11-1 16-4 15-6 20-8 33-7 43-3 24-7 31-7 34-6 31-7 43-4 24-9 73-3 39-2 34-2 20 5 13v8l-6 8v14l3 9 1 14-4 8-1 8 2 7 5 4 1 6-3 13v25l3 7 3 9v9l-1 5 1 3 8-2 12-10 7-6 1-3v-20l3-8 8-11 14-14 5-8 9-27 5-13 9-19 11-26 13-30 12-26 12-25 12-28 6-16 5-16 6-12 6-10 8-25 8-19 9-20 5-16 5-18 9-15 16-40 4-15 5-13 7-12 6-7 8-11 4-7v-8l-1-4v-7l5-13 9-14 6-8 4-8 1-11 8-18 8-16 8-18 6-9 9-20 8-19 9-27 9-20 8-14 7-17 6-14 14-22 14-29 7-14 1-5-32 16-14 11-10 9-11 9-10 8-8 7-13 14-6 8-10 8-12 7-7 1-16-8-13-7-13-10-6-9-4-10-3-15-3-6 2-10 7-8 9-7 19-13 11-9 19-13 14-11 18-13 13-9 19-14 14-10 21-12 31-16 16-8 29-15 7-6 1-17 6-21 1-12-2-6 1-8 9-10 4-2 10 1 26 13 7-1 4-2 5-7 4-16-4-7 1-10 2-2h9l8 1 7-8zm179 137-31 2-21 3-50 11-32 9-34 12-16 8-5 4-5 18-6 29-6 20-10 26-5 18-3 15-3 8-1 8 2 10 4 8-1 4-9 18-5 6-5 5-3 5-3 10-3 20-7 28-6 27-9 34-4 20-4 23-6 23-4 25-7 19-3 6 1 5 1 3v13l-6 28-6 18-1 6 9-1 16-11 14-10 21-21 10-9 10-8 7-8 4-5 14-7 10-13 14-15 7-6 2-10 4 1 2 3 5-2 6-8 5-8 4-5v-6l-1-2v-6l8 1 6 1 8-5 7-10 2-3-1-11 10-4 10-9 10-8 10-13 7-7 8-7 5-5v-2h2l7-8 13-13 11-16 11-13 12-15 13-18 11-14 7-10 15-29 9-15 11-14 6-9 12-29 11-33 4-16 3-23v-20l-4-6-10-6-15-5-16-3-21-1zm-338 198-4 4-2 5 1 6 4 1 8-7 2-3-1-4-2-2zm-19 52-4 3v3h8l1-4-2-2zm2 28-3 2-1 16-7 16-8 9-7 6-5 3 1 5 1 2 7 1 5 1 6-5 7-10 3-14 3-10 1-10 1-12zm-494 41-3 3v8l4 4 4-5 1-2v-6l-2-2zm448 9-5 5 1 3 5 5v8l-2 3v5l4 1 8-3 1-1 1-8-3-1-2-7v-4l3-2-7-4zm11 5m2 1m378 14-4 3 1 4 6 1 5-5-2-3zm-832 2-5 5 1 6 4 5 5-1 3-4-2-9-2-2zm862 15m-50 5-5 6-7 10-14 18-5 5-4 2v2l-3 1v2h-2v2l-4 2-4 5-5 8-11 12-6 5-6 9-1 4h5l7-6 10-13 4-7 2-5 1-3 9-1 6-4 11-19 5-5 5-4 6-7 8-6 1-10zm-373 1v2l9 2-1-4zm-459 6-5 3-1 4 2 2h8l5-5v-4zm32 26-6 8-4 10 1 7 2-1 4-9 5-9v-6zm447 9-5 4-4 7-9 8-2 4 1 5 8-1 7-6 7-14v-7zm-56 12-4 3-2 10v5l4 3 4-1 2-2 1-5v-11l-2-2zm-400 10v2l-6 2-4 6-2 6-5 3-5 4-3 11-4 8-9 12-12 7-10 8 5 6h7l6-5 5-6 11-8 4-3 7 2-1 6-11 12-6 9 8 5 4-1 5-10 4-10 2-6 3-6 2-10 6-7 1-4-3-7-4-3 1-5 4-5 2-5-1-8zm111 30-8 7-7 7-4 5 2 5 2 2h7l6-4 4-5 1-13-1-4zm334 16-3 3-3 5v2l4 3 5-8 1-5zm-531 9-4 2 1 3 9 2h4l-2-5-2-2zm504 0-2 1 1 3 10 4h4l1-6-10-2zm16 2 2 1 1 2v-3zm7 4-2 4-3 1-7 18-5 10h-3l-9-1-4-2h-7l-4 4 1 11 6-2 3-2h6l1 2v8l-2 6-2 10-3 6-2 15-1 3-6 3-12 2v3l8 6 5 3 5-1 4 4-3 5h-2l-2 7-6 7-1 3 10 4 1 4 4 3 1 3h-2l-1 15 2-3 1-7 9-15-1-6v-12l2-7 4-6v-6l-5-7-1-6 4-7 2-5 4-13 4-15 4-20 5-17 1-10zm260 1-8 6v2l2 1h6l5-4-1-4zm-788 27-5 5 7 6 5 2h8l1-2-2-7-5-3zm64 30m-75 5-3 2 2 4 2 1h11l5-1-5-6zm441 32-10 6-4 5 1 2 11-6 8-5v-2zm373 2-6 5 2 5 5 4 5-3 1-4-3-6zm-317 11 1 2zm-26 36-7 2-4 1-7 8-8 8-3 7 1 7 5 2h11l3-2 2-10 2-4 5-4 6-8 2-7zm-50 1-6 5v4l7-1 4-4-3-4zm83 17-11 6-4 2-1 7 9 1 5-5 3-6v-5zm-504 3m-6 5 1 3 3-1v-2zm-57 101-9 4-3 5 2 5 5 3 14 1 4 1 4-5 1-7-5-2-5-4zm17 1-1 4 2 1v-5zm-68 9-4 3v5l5-4 1-4zm534 7m-13 1-4 4 2 3h8l4-5 2-2zm-531 11-7 6-2 5 3 1 7-1 2-4v-7zm69 3v4l3 2v-5zm-115 82-3 3 1 4 5 3 3-2-1-5-2-3zm-9 36-4 2 1 3h9l1-4-1-1zm28 70-7 6-5 11-5 10-3 3-4 2v1h17l1-4-1-1v-8l4-10 8-7-2-3zm508 1-2 1 1 4 5-3-1-2zm-548 31-7 6-5 3 2 4 6 3 12 10 12 2-5-5-3-4-12-4-2-2 1-6 5-2 5-3-2-2zm20 28m2 1m2 1m3 3m-35 38-3 10 3-1 1-9z" fill="#FEFEFE"/>
<path transform="translate(655,1088)" d="m0 0 5 1 2 2v8l-3 8-2 11-4 7-5-2-3-3v-3l3-1 3-6 4-4 1-5-6 1 1-10z" fill="#FEFEFE"/>
<path transform="translate(624,1125)" d="m0 0h5l3 4 1 5-4 5-4 2-4 5-7 2 1-9v-5l5-5z" fill="#FEFEFE"/>
<path transform="translate(1092,1254)" d="m0 0 3 1-4 13-3 5-11-1-1-3 4-5h2l2-4z" fill="#FEFEFE"/>
<path transform="translate(750,866)" d="m0 0h7l1 3-4 6-6-1-2-1 1-5z" fill="#FEFEFE"/>
<path transform="translate(1127,1152)" d="m0 0 7 1v7l-3 2-5-1-1-5z" fill="#FEFEFE"/>
<path transform="translate(1382,571)" d="m0 0 4 2 1 6-5-1z" fill="#FEFEFE"/>
<path transform="translate(1168,998)" d="m0 0 5 2v2l4 1-6 1-3-4z" fill="#FEFEFE"/>
<path transform="translate(1137,1177)" d="m0 0h2l1 6h-3l-1-3z" fill="#FEFEFE"/>
<path transform="translate(572,1218)" d="m0 0 2 2v5h-2l-1-5z" fill="#FEFEFE"/>
<path transform="translate(649,1089)" d="m0 0h2l-1 4-3-1z" fill="#FEFEFE"/>
<path transform="translate(1127,1165)" d="m0 0 3 1v2l-3-1z" fill="#FEFEFE"/>
<path transform="translate(623,1150)" d="m0 0 4 1-4 1z" fill="#FEFEFE"/>
<path transform="translate(1088,1274)" d="m0 0 1 3h-2z" fill="#FEFEFE"/>
<path transform="translate(579,1244)" d="m0 0h2l-1 3z" fill="#FEFEFE"/>
<path transform="translate(1121,1153)" d="m0 0h2v2h-2z" fill="#FEFEFE"/>
<path transform="translate(1521,998)" d="m0 0 3 2h-3z" fill="#FEFEFE"/>
<path transform="translate(633,1131)" d="m0 0" fill="#FEFEFE"/>
<path transform="translate(1480,996)" d="m0 0" fill="#FEFEFE"/>
<path transform="translate(692,979)" d="m0 0" fill="#FEFEFE"/>
<path transform="translate(1158,928)" d="m0 0" fill="#FEFEFE"/>
<path transform="translate(1159,927)" d="m0 0" fill="#FEFEFE"/>
<path transform="translate(1408,268)" d="m0 0" fill="#FEFEFE"/>
</svg>
